<svg enable-background="new 0 0 109.484 122.88" height="122.88" viewBox="0 0 109.484 122.88" width="109.484" xmlns="http://www.w3.org/2000/svg"><path clip-rule="evenodd" d="m2.347 9.633h38.297v-5.873c0-2.068 1.689-3.76 3.76-3.76h21.144c2.07 0 3.76 1.691 3.76 3.76v5.874h37.83c1.293 0 2.347 1.057 2.347 2.349v11.514h-109.485v-11.515c0-1.292 1.055-2.349 2.347-2.349zm6.343 19.972h92.921c1.937 0 3.696 1.599 3.521 3.524l-7.864 86.229c-.174 1.926-1.59 3.521-3.523 3.521h-77.3c-1.934 0-3.352-1.592-3.524-3.521l-7.755-86.229c-.172-1.932 1.585-3.524 3.524-3.524zm60.387 13.393h9.866v65.314h-9.866zm-39.005 0h9.867v65.314h-9.867zm19.5 0h9.869v65.314h-9.869z" fill-rule="evenodd"/></svg>